<?xml version="1.0" encoding="UTF-8" standalone="no"?>
<svg
   width="1931"
   height="543"
   viewBox="0 0 1931 543"
   version="1.1"
   id="svg8"
   sodipodi:docname="logo.svg"
   inkscape:version="1.4.3 (0d15f75, 2025-12-25)"
   xmlns:inkscape="http://www.inkscape.org/namespaces/inkscape"
   xmlns:sodipodi="http://sodipodi.sourceforge.net/DTD/sodipodi-0.dtd"
   xmlns="http://www.w3.org/2000/svg"
   xmlns:svg="http://www.w3.org/2000/svg">
  <defs
     id="defs8" />
  <sodipodi:namedview
     id="namedview8"
     pagecolor="#ffffff"
     bordercolor="#000000"
     borderopacity="0.25"
     inkscape:showpageshadow="2"
     inkscape:pageopacity="0.0"
     inkscape:pagecheckerboard="0"
     inkscape:deskcolor="#d1d1d1"
     inkscape:zoom="0.71800585"
     inkscape:cx="959.60221"
     inkscape:cy="288.99486"
     inkscape:window-width="1920"
     inkscape:window-height="1009"
     inkscape:window-x="1358"
     inkscape:window-y="-8"
     inkscape:window-maximized="1"
     inkscape:current-layer="svg8" />
  <g
     id="g8"
     style="display:inline">
    <path
       d="m 1839.71,348.44 c -12.8,1.01 -17.52,-2.2 -24.96,-16.94 -3.7,-7.33 -5.75,-15.08 -5.75,-21.76 0,-5.18 0.35,-6.25 2.92,-8.82 2.23,-2.23 3.85,-2.92 6.82,-2.92 4.83,0 8.35,2.57 18.73,13.71 9.74,10.43 16.58,14.19 22.58,12.39 4.06,-1.21 6.95,-4.95 6.95,-8.97 0,-3.43 -4.71,-7.75 -13.24,-12.17 -17.91,-9.28 -29.92,-19.43 -35.11,-29.66 -7.99,-15.77 -4.88,-34.87 7.85,-48.21 6.65,-6.98 14.98,-11.66 24.23,-13.62 9.09,-1.93 14.56,-1.83 28.77,0.5 l 12,1.96 6.58,-2.11 c 9.02,-2.89 12.74,-2.09 18.57,3.99 6.23,6.5 12.61,19.63 13.15,27.08 0.56,7.72 -1.47,11.63 -7.37,14.24 -7.75,3.43 -12.72,1.19 -27.17,-12.24 -7.34,-6.82 -12.47,-8.87 -17.25,-6.89 -6.35,2.63 -7.81,8.7 -3.37,13.99 1.56,1.85 7.18,5.41 13.75,8.7 10.5929,5.30275 31.1521,13.70581 37.488,27.94597 6.7822,15.2434 6.1944,37.15338 -4.6455,49.83634 -10.0132,11.71578 -27.8487,14.17719 -44.8058,11.40897 -13.754,-2.24532 -16.7236,-2.98786 -16.7236,-2.98786 M 11.893307,334.21092 c 6.705618,-3.62269 8.464042,-11.93249 9.334042,-13.62249 C 24.667349,313.93843 21.82,297.96 22.67,253 23.5,209.32 22.2,202.03 12.66,196.89 4.84,192.67 3.663307,188.0089 3.663307,183.0089 3.663307,177.7789 4.55,173.92 9.6,171.52 c 7.66,-3.64 22.05,-5.82 38.9,-5.92 18.34,-0.1 25.11,1.14 29.28,5.37 1.5,1.51 10.98,18 21.08,36.64 10.1,18.64 19.28,34.89 20.41,36.12 2.87,3.14 5.43,3.7 8.28,1.83 3.44,-2.26 5.28,-5.45 21.34,-37.03 7.83,-15.38 15.86,-29.95 17.85,-32.39 5.18,-6.32 11.51,-8.92 25.13,-10.3 19.22,-1.96 39.34,1.25 45.78,7.3 1.31,1.23 2.84,3.98 3.42,6.11 1.52,5.65 -0.24,9.94 -6.13,14.9 -10.05,8.47 -11.44,16.43 -11.44,65.35 0,33.5 1.13,53.24 3.59,62.72 0.77,2.96 2.28,4.66 7.34,8.27 6.9,4.92 7.57,5.91 7.57,11.14 0,7.2 -4.39,11.28 -16,14.88 -4.02,1.25 -10.63,1.84 -24.62,2.22 -29.32,0.8 -44.98,-1.66 -51.84,-8.12 -2.98,-2.81 -3.54,-4.02 -3.54,-7.6 0,-3.92 0.5,-4.73 6.39,-10.38 4.34,-4.16 6.79,-7.42 7.62,-10.13 1.64,-5.37 2.53,-43.07 1.11,-46.75 -0.85,-2.19 -1.71,-2.75 -4.19,-2.75 -5.91,0 -9.54,6.02 -25.85,42.81 C 117.44,346.6 114.21,352 109.45,352 104.21,352 98.73,342.37 79.59,299.56 73.22,285.3 67,272.57 65.79,271.27 c -2.75,-2.92 -5.88,-2.59 -7.49,0.78 -1.73,3.62 -2.82,40.62 -1.44,48.83 1.23,7.3 2.75,9.38 9.35,12.73 5.37,2.72 6.79,4.77 6.79,9.79 0,4.74 -4.61,9.94 -10.64,11.99 -7.5,2.56 -13.097874,1.75669 -21.803098,2.45871 -9.813569,-0.85018 -20.526593,-0.0742 -31.9695531,-5.15613 -3.0690768,-1.36301 -10.8872286,-10.81383 3.3059581,-18.48166 z M 1558.5,393.99 c -5.07,1.95 -8.24,2.35 -20.5,2.59 -20.38,0.41 -33.41,-2.01 -48.6,-9.03 -10.05,-4.65 -13.97,-7.87 -15.99,-13.14 -2.58,-6.75 -1.21,-10.07 5.93,-14.41 7.64,-4.64 9.52,-7.86 10.62,-18.15 2.52,-23.48 1.93,-77.45 -0.9,-82.74 -0.66,-1.23 -2.64,-2.12 -5.74,-2.59 -6.63,-0.99 -12.32,-6.61 -12.32,-12.15 0.01,-7.94 5.41,-13.11 20.68,-19.82 20.54,-9.01 37.47,-13.55 50.59,-13.55 9.04,0 10.61,1.02 11.54,7.51 0.92,6.4 2.61,6.75 10.14,2.1 14.64,-9.04 30.43,-12.42 44.25,-9.48 27.59,5.85 46.35,38.62 42.68,74.53 -1.95,19.08 -8.81,33.52 -22.28,46.85 -16.97,16.8 -36.29,22.22 -56.74,15.91 -15.94,-4.92 -16.82,-4.69 -16.84,4.36 -0.02,6.99 1.93,11.34 6.62,14.78 8.37,6.13 9.36,7.46 9.36,12.56 0,3.98 -0.52,5.29 -3.25,8.16 -1.85,1.94 -5.84,4.41 -9.25,5.71 z M 882.71,358.03 c -3.74,2.29 -3.88,2.29 -22.21,-0.1 -11.9,-1.55 -21.72,-1.83 -65.5,-1.88 -31.87,-0.04 -52.91,-0.45 -55.19,-1.08 -5.01,-1.4 -8.81,-6.08 -8.81,-10.87 0,-4.34 2.09,-6.68 9,-10.1 5.43,-2.69 8.63,-5.49 10.85,-9.5 1.42,-2.58 1.69,-7.43 1.94,-34.5 0.16,-17.33 -0.09,-43.48 -0.56,-58.13 -0.95,-29.77 -1.19,-30.77 -8.06,-33.49 -13.77,-5.43 -17.17,-8.2 -17.17,-13.94 0,-13.04 27.2,-20.68 67.5,-18.95 31.88,1.37 42.03,4.89 44.11,15.31 1.14,5.72 -0.98,8.58 -9.94,13.35 -6.89,3.67 -8.36,4.9 -9.36,7.85 -1.46,4.27 -1.77,104.29 -0.35,110.42 1.25,5.39 3.86,8.66 9.1,11.4 4.01,2.1 5.45,2.29 14.94,1.93 12.08,-0.46 17.23,-2.26 23.95,-8.32 4.7,-4.25 8.06,-10.22 10.53,-18.7 1.96,-6.74 5.16,-9.73 10.4,-9.73 5.3,0.01 9.65,3.15 12.76,9.21 2.32,4.51 2.72,6.55 2.75,13.79 0.03,9.71 -1.81,16.9 -7.05,27.5 -4.53,9.16 -9.63,16.1 -13.63,18.53 z m -579.25,0.89 c -22.31,4.13 -43.39,-4.81 -51.27,-21.72 -2.09,-4.47 -2.74,-7.6 -3.03,-14.52 -0.34,-8.23 -0.16,-9.25 2.76,-15.16 2.04,-4.15 5.18,-8.24 9.07,-11.85 11.23,-10.4 25.29,-15.21 48.42,-16.57 9.43,-0.56 13.5,-0.78 15.26,-2.9 1.33,-1.62 1.33,-4.34 1.33,-9.15 v -0.19 c 0,-11.36 -1.62,-17.68 -5.53,-21.59 -5.76,-5.76 -12.58,-3.95 -20.09,5.33 -12.35,15.25 -19.4,20.4 -27.9,20.4 -12.3,0 -19,-11.09 -13.53,-22.4 9.72,-20.08 55.14,-34.71 87.23,-28.09 17.92,3.69 32.54,15.01 37,28.66 0.62,1.87 1.38,16 1.74,32.36 0.64,28.19 0.73,29.17 3.12,33.99 2.14,4.31 3.03,5.12 6.89,6.21 5.05,1.42 6.04,2.53 6.04,6.77 0.03,11.34 -15.11,26.01 -31.04,30.1 -12.1,3.1 -22.18,0.55 -31.66,-8.02 -5.9,-5.33 -6.78,-5.36 -14.05,-0.38 -6.04,4.14 -13.95,7.46 -20.76,8.72 z m 1444.7,-9.33 c -7.99,1.54 -24.04,1.7 -31.08,0.32 -24.91,-4.88 -44.24,-21.2 -53.3,-44.99 -3.07,-8.05 -3.21,-9.06 -3.25,-22.92 -0.02,-12.27 0.31,-15.58 2.19,-21.5 4.38,-13.82 14.71,-27.53 27.5,-36.52 31.11,-21.85 76.89,-17.28 98.34,9.82 11.58,14.62 15.44,32.44 9.54,44.01 -3.98,7.8 -3.07,7.63 -43.05,8.19 l -35.55,0.5 -0.32,3.37 c -0.48,5.03 1.44,8.56 7.91,14.55 13,12.04 27.94,12.68 47.65,2.03 4.53,-2.45 9.19,-4.45 10.35,-4.45 3.17,0 8.64,6.02 9.46,10.42 1.19,6.36 -1,11.37 -7.92,18.08 -10.17,9.86 -22.6,16.03 -38.47,19.09 z M 489,356.99 c -8.67,1.49 -46.7,2.14 -55.5,0.95 -16.59,-2.24 -25.69,-7.13 -27.09,-14.55 -0.94,-5.05 1.08,-8.77 8.16,-14.99 8.06,-7.08 8.45,-8.73 9.17,-39.1 0.63,-26.97 0.4,-28.07 -6.43,-31.28 -7,-3.3 -9.31,-6.13 -9.31,-11.44 0,-3.57 0.62,-5.21 2.96,-7.88 5.13,-5.84 22.12,-12.42 43.2,-16.73 9.62,-1.96 24.27,-2.62 26.53,-1.18 1.71,1.09 3.02,5.02 3.84,11.58 0.71,5.72 2.39,8.63 4.98,8.63 0.76,0 3.48,-2.74 6.05,-6.08 8.62,-11.2 17.37,-15.51 29.82,-14.7 11.13,0.73 18.41,5.56 23.76,15.78 1.99,3.81 2.35,5.96 2.35,14 0,8.42 -0.31,10.09 -2.74,14.71 -6.26,11.89 -14.41,17.37 -26.89,18.09 -9.42,0.55 -13.71,-1.21 -22.84,-9.36 -8.41,-7.5 -12.55,-7.3 -14.09,0.69 -1.09,5.66 -1.09,29.27 0.01,38.74 1.1,9.49 2.96,12.01 10.93,14.78 7.05,2.45 8.69,3.59 10.7,7.48 3.38,6.54 0.35,14.44 -7.11,18.56 -2.18,1.2 -6.89,2.69 -10.46,3.3 z m 145.46,-0.46 c -5.81,1.58 -36,2.86 -44.46,1.88 -24.6,-2.82 -31,-6.21 -31,-16.42 0,-4.68 0.21,-5.04 5.93,-10.01 7.24,-6.3 9,-10.3 10.11,-22.98 1.12,-12.96 -0.56,-43.62 -2.57,-46.69 -0.83,-1.26 -3.72,-3.41 -6.42,-4.78 -5.84,-2.96 -8.05,-5.79 -8.05,-10.3 0,-5.17 2.54,-8.96 7.77,-11.6 11.97,-6.04 44.54,-14.48 59.25,-15.37 7.34,-0.44 8.73,-0.26 10,1.27 1.25,1.49 1.56,9.5 1.98,50.37 0.57,54.93 0.1,51.81 8.79,58.31 7.43,5.55 8.98,10.87 4.92,16.89 -2.75,4.09 -8.2,7.25 -16.25,9.43 z M 602.7,209.43 c -9.13,1.88 -23.81,1.98 -28.81,0.19 -13.55,-4.84 -17.6,-17.79 -8.59,-27.46 3.13,-3.35 12.16,-7.71 22.4,-10.79 7.24,-2.18 10.92,-2.67 20.8,-2.76 11.09,-0.1 12.44,0.1 17.79,2.6 4.95,2.32 6.08,3.38 7.83,7.32 6.03,13.64 -6.23,25.69 -31.42,30.9 z M 1560,313.88 c 8.89,3.54 18.79,-1.67 22.59,-11.89 2.53,-6.8 3.08,-25.83 0.99,-34.02 -2.88,-11.26 -7.86,-16.8 -15.93,-17.71 -5.72,-0.64 -10.14,1.65 -11.54,5.97 -1.15,3.56 -3.1,31.41 -3.11,44.35 0,8.72 1.19,10.98 7,13.3 z m 161.08,-55.1 c 1.65,0.87 5.88,1.19 13.26,1 10.01,-0.26 10.99,-0.46 12.75,-2.64 4.17,-5.15 0.62,-17.04 -6.09,-20.39 -4.27,-2.13 -10.13,-2.25 -13.93,-0.29 -9.2,4.76 -12.93,18.65 -5.99,22.32 z M 310.76,328.43 c 4.07,2.21 7.72,1.88 11.14,-1 3.89,-3.27 5.4,-8.8 4.94,-18.01 -0.45,-8.92 -1.59,-10.42 -7.89,-10.42 -8.41,0 -13.95,6.54 -13.95,16.5 0,6.53 1.92,10.85 5.76,12.93 z"
       fill="#000000"
       id="path24"
       sodipodi:nodetypes="cssssccscccccccccccsccaascscccscccsccccccccsccscccscccscscccccsccssccccccccccscccsccccsccccccsccsccscccccccccccccccccccccssscsccccccccccccccccccccccccscccccccccsccccscccscccccccccccsccccscccccccccccccccccccccccccccccccssc"
       style="display:inline" />
    <path
       d="m 1195.557,538.85187 c -71.0816,1.19027 -149.2157,-21.03802 -201.87282,-68.80035 -51.47823,-46.693 -83.85345,-120.41368 -86.135,-189.87618 -2.31652,-70.52713 25.20355,-147.73249 74.6159,-198.109694 C 1032.362,30.888597 1110.2345,3.06242 1181.9169,2.387774 c 73.1757,-0.6887008 152.5061,26.923126 205.408,77.48542 48.8939,46.731516 77.6125,118.826266 80.1232,186.414296 2.5527,68.7181 -19.2934,145.69777 -67.1764,195.05273 -50.8078,52.36968 -131.759,76.29001 -204.7147,77.51165 z m 227.6623,-271.96478 c -0.01,-51.05484 -13.9604,-72.85524 -18.2737,-85.66574 -0.8399,-25.40302 8.6508,-41.72836 -8.085,-49.47231 -30.0231,-13.8922 -50.9619,-45.298501 -81.3681,-59.68106 -42.2682,-19.993396 -80.6164,-37.234074 -135.8858,-34.815135 -38.462,1.683341 -84.5073,15.267802 -122.0472,34.763652 -26.8764,13.957868 -44.1027,49.325783 -70.61687,57.163963 -32.93307,9.73573 -17.99956,20.28981 -19.10455,57.55525 -13.13401,26.54662 -16.49345,64.881 -15.47041,94.42848 2.19733,63.46332 38.12205,124.85043 85.20413,165.06695 41.1151,35.11956 108.9992,51.40821 154.0059,50.95739 50.2355,-0.5032 136.049,-18.22363 180.1804,-64.2486 40.1059,-41.82689 51.4711,-113.77532 51.4612,-166.05284 z m -87.0845,-156.48483 c -15.137,-5.53635 -97.6341,-13.507608 -146.7905,-14.362258 -49.666,-0.863512 -101.968,4.786058 -141.5834,16.116718 -4.2651,1.21988 -24.1364,-4.48432 -11.3914,-6.88084 80.3451,-15.107794 101.4874,-15.566164 152.6383,-15.804884 53.3139,-0.24881 144.3764,9.760086 159.2395,14.987574 4.2427,1.49219 34.0599,22.83117 -12.1125,5.94369 z"
       style="display:inline;fill:#000000"
       id="path1-7"
       sodipodi:nodetypes="aaaaaaaaascsasascsasassssssss" />
    <path
       d="m 1209.0032,419.6927 c 21.4694,1.70958 58.7462,26.90009 58.7462,26.90009 0,0 -13.9952,28.85347 -31.83,32.82 -7.35,1.25 -70.14,2.2 -76.72,1.16 -26.3375,-4.68577 -39.24,-36.19 -39.24,-36.19 0,0 58.3399,-27.13501 89.0438,-24.69009 z"
       fill="#a29d9c"
       id="path5"
       sodipodi:nodetypes="acccca"
       style="display:inline"
       sodipodi:insensitive="true" />
    <path
       id="path6"
       style="display:inline;fill:#fe1471;fill-opacity:1"
       d="m 1106.3225,42.013313 c -2.8152,0.933923 -31.1113,11.929531 -17.4687,41.378906 10.265,21.434681 43.583,37.138401 68.6152,29.189551 11.01,-3.92 10.5804,-1.99899 -2.5196,11.29101 -15.3224,13.12592 -32.1144,43.80931 -1.5097,48.66992 6.4214,0.0246 10.7745,-34.39133 20.0195,-50.83007 6.27,-11.15 14.83,-12.13954 21.75,-2.51954 9.271,12.93562 13.9929,50.6377 20.9199,52.83008 34.5037,-5.9889 11.7222,-35.289 -2.0097,-49.37109 -11.93,-12.02 -12.15,-13.98031 -1.17,-10.07031 16.9532,6.04221 52.2195,-0.20192 68.3203,-29.410166 4.41,-8.76 5.0986,-15.068282 2.4786,-22.488282 -1.2863,-4.471047 -10.2297,-15.116909 -18.17,-18.101562 -20.8187,-8.423806 -26.4885,-0.255665 -33.4589,3.009765 -6.9704,3.26543 -39.7104,43.937596 -46.2553,46.584764 -5.5265,0 -33.4119,-40.105998 -46.9557,-46.614094 -12.0019,-5.773627 -20.0271,-9.069526 -32.5859,-3.548882 z m 16.6914,23.539062 c 22.0234,0 57.7611,34.027017 44.075,34.104337 -20.3965,2.203708 -50.846,-10.985285 -52.9949,-12.543545 -8.5612,-4.839909 -9.4917,-21.560547 8.9199,-21.560547 z m 124.0899,26.470702 c -5.5359,2.946479 -43.8644,15.679423 -44.9004,5.068355 0,-4.589638 25.4672,-23.381459 32.7891,-27.769527 19.9592,-11.103805 45.3247,7.216559 12.1113,22.701172 z m 159.9629,53.419933 c -0.675,3.51088 -3.1473,7.10196 -7.543,11.20899 -19.04,17.81 -79.8603,31.79133 -160.3203,36.86133 -14.63,0.92 -87.43,1.18914 -100.5,0.36914 -88.45,-5.56 -148.1103,-19.36969 -168.1503,-38.92969 -4.01924,-3.92504 -5.02477,-5.04621 -5.27149,-7.76562 -0.0648,3.048 -0.0781,7.07859 -0.0781,12.53515 l -2e-5,180.77929 c 19.51358,57.02623 -16.31781,43.22866 5.8485,73.48465 13.8064,8.31372 106.51021,24.9423 140.76171,28.64586 l 21.5679,2.51801 c 30.6231,-2.99635 19.7344,-27.66583 28.5408,-50.9848 l -0.219,-184.11294 c 16.4999,-0.18358 33,-0.35612 49.5,-0.5293 l -0.1095,185.35403 c 23.0913,24.07311 33.0399,29.43971 49.9643,47.3683 50.6419,-5.97209 134.0092,-24.40141 149.1312,-29.59678 22.9234,-15.06595 -27.7312,-33.98965 -2.986,-73.59625 -0.048,-14.14233 0.196,-171.09949 0,-180.89062 -0.1169,-5.84014 -0.026,-9.84457 -0.1367,-12.71876 z m -361.5313,52.27735 c 18.4567,2.28906 29.027,4.91714 46.168,7.41211 0.2591,73.68385 -0.2504,147.36764 -0.2963,221.05078 -14.9203,-1.70747 -35.4757,-4.92717 -46.7595,-6.63086 -1.3196,-73.94534 0.8246,-147.89079 0.8878,-221.83203 z m 282.1582,0.66207 c 0,0 0.5098,147.30122 0.5098,220.94925 -15.0408,3.62539 -30.6411,5.07547 -47.5195,6.03125 -0.4992,-1.33128 -0.2929,-88.63243 0.02,-220.25977 17.5736,-1.16863 46.9897,-6.72073 46.9897,-6.72073 z"
       sodipodi:nodetypes="cccsccccccccczzccsccsscsccscccccscccccccccccssscccccccccc" />
    <path
       d="m 1104.2034,428.33238 v -223 c 20.7363,3.03984 30.7213,3.64995 45.3286,4.64373 -0.3529,60.79175 -0.3286,121.58385 -0.3286,182.37627 -13.863,18.94773 -10.9831,18.4245 -20.8616,37.05952 -5.2258,-0.24467 -20.1298,-0.49051 -24.1384,-1.07952 z m 119,-38.02 v -181.76 c 10.5391,-0.45668 34.2547,-1.24848 45.3386,-2.67241 -1.5066,73.61697 -0.6046,147.18281 -0.5026,220.9036 -22.4758,2.38124 -28.8057,-16.52597 -44.836,-36.47119 z m -190.2178,4.52224 -43.15369,-43.97849 -1.37842,-167.28375 43.70361,12.50869 z m 308.7178,-199.64224 c 8.7147,-1.89648 43.6442,-10.57 43.6442,-10.57 -0.2284,49.30965 -0.1577,98.62 -0.1442,147.93 -12.0531,21.6173 -20.6766,65.14648 -41.7625,81.38844 z"
       fill="#fd8bbe"
       id="path14"
       style="display:inline"
       sodipodi:nodetypes="ccccccccccccccccccccc" />
    <path
       d="m 1225.8109,472.26279 c -13.3374,0.55863 -40.3349,4.61242 -62.6234,-15.80485 -1.2614,-19.62897 39.8079,-55.52544 43.0885,-58.72674 20.2928,1.30214 23.025,26.01852 25.3945,34.02028 2.33,13.9587 5.1426,28.83541 -5.8596,40.51131 z M 1337.7624,97.724812 c 8.5368,14.559268 26.0058,54.935748 22.4451,56.360818 -8.7968,2.81019 -19.7822,3.91577 -27.9507,2.70502 -8.1685,-1.21075 3.1143,-34.47479 -9.4522,-49.45857 0,0 12.7191,-8.363548 14.9578,-9.607268 z m -290.8047,0.0878 c 2.4705,1.95764 5.3152,4.722118 8.7053,7.365118 19.7256,14.60752 15.461,38.90369 4.7631,45.57412 -13.4191,8.3672 -30.7681,5.09084 -46.1378,1.11598 4.9157,-18.23212 15.2924,-44.65779 32.6694,-54.055218 z"
       fill="#b3351a"
       id="path3"
       sodipodi:nodetypes="ccccccczccccscc"
       style="display:inline" />
    <path
       d="m 1343.3147,414.93882 c -2.2542,-20.20334 6.963,-60.26822 24.4262,-75.83603 17.8717,-3.78359 42.9463,-0.18446 54.0016,14.85999 10.7284,14.59964 6.9972,48.07994 -1.8916,54.32001 -9.3707,5.24945 -50.7321,18.94354 -76.5362,6.65603 z m -375.81519,-0.4882 c -8.13131,-2.96554 -27.88711,-33.50966 0.74568,-63.5578 28.6328,-30.04814 47.08291,-9.43748 53.06601,-3.43293 19.6318,23.75266 18.6598,69.74453 18.6598,69.74453 0,0 -40.721,12.79764 -72.47149,-2.7538 z m 162.94779,5.67312 c 9.7326,-17.0434 36.4561,-33.79145 55.1407,-20.64709 24.1094,16.27233 30.0811,56.18397 25.9554,67.69686 -11.1381,9.05199 -47.8029,13.11596 -73.0039,-1.22774 -4.7798,-3.66221 -15.7836,-32.35305 -8.0922,-45.82203 z m -99.6478,-273.7315 c 4.8424,-20.79335 16.3073,-38.59512 38.8182,-41.54366 1.29,0.43 25.1805,5.96549 30.5329,18.92728 4.3063,10.42825 1.2495,39.57816 -28.1097,39.70693 -7.0227,0.0554 -38.6497,-9.52296 -41.2414,-17.09055 z m 249.3964,-26.3047 c 5.4832,-12.13075 21.944,-24.637308 35.485,-18.32475 19.7917,10.14522 30.4922,28.84902 32.4457,46.04013 -10.909,15.82657 -42.2385,13.59783 -58.3707,10.51001 0,0 -14.9698,-26.25699 -9.56,-38.22539 z m -54.385,352.17525 c 0,0 6.8353,-21.97166 -1.7367,-44.59629 -4.1172,-10.86671 -17.8775,-29.9286 -17.8775,-29.9286 0,0 31.0043,-4.26671 37.9084,6.53868 12.6358,19.77604 51.5109,53.68676 -18.2942,67.98621 z M 1047.5501,98.304022 c -6.9386,5.840148 -15.8521,16.913328 -21.1289,27.071448 -4.4245,8.51732 -8.3847,27.54607 -8.3847,27.54607 0,0 -28.67874,0.24492 -14.1474,-39.56804 8.3045,-22.752752 36.6007,-22.743552 43.661,-15.049478 z m 312.5662,55.851108 c -1.3197,-2.70537 -5.8528,-20.20149 -9.8637,-29.89969 -3.7244,-9.00556 -12.0038,-22.94454 -13.1271,-26.123208 -0.2033,-0.57512 24.0021,-11.590073 32.9198,11.496068 4.6847,12.12764 3.2733,41.12545 -9.929,44.52683 z"
       fill="#d03c1e"
       id="path4"
       sodipodi:nodetypes="cccccczcccacccascscsacccacscaccacsccassc"
       style="display:inline" />
    <path
       d="m 992.86676,330.89327 c 8.89054,-1.46239 23.11714,11.12023 23.11714,11.12023 0,0 -16.5495,-4.53832 -21.71383,3.08825 -5.16436,7.62656 5.11013,18.64875 5.11013,18.64875 0,0 -19.18586,-4.11649 -23.77156,5.13404 -4.5857,9.25053 6.96486,24.33413 6.96486,24.33413 0,0 -12.81144,-4.77486 -17.61506,3.77938 -4.80361,8.55424 1.64249,17.05474 1.64249,17.05474 0,0 -18.12604,-9.37701 -21.69955,-20.09636 -5.46225,-17.96569 7.39932,-35.44281 3.33955,-43.33364 -2.47,-4.77 -1.25,-6.11 5.55,-6.11 14.56899,0 10.82809,-8.97309 39.07583,-13.61952 z m 426.98414,77.38952 c 0,0 5.5393,-12.43743 -0.6969,-19.37607 -6.2362,-6.93864 -15.8331,-2.17393 -15.8331,-2.17393 0,0 9.4893,-12.35323 1.5395,-20.99905 -7.9498,-8.64582 -20.8195,-3.73095 -20.8195,-3.73095 0,0 8.9093,-11.38336 2.1046,-18.74595 -6.8047,-7.36259 -20.0381,-2.56798 -20.0381,-2.56798 0,0 12.7803,-17.75792 32.4245,-10.92905 18.8745,9.54504 20.4934,13.58985 28.869,13.75298 6.14,0 7.01,1.03 4.97,5.88 -2.9198,6.95518 8.6159,30.97557 1.47,46.62 -2.789,7.42461 -13.99,12.27 -13.99,12.27 z m -281.3916,57.62305 c 0,0 -14.4185,-5.37926 -17.7684,-22.34305 -1.33,-4.96 -0.28,-14.72 2.95,-27.39 1.56,-6.09 1.64,-7.63 0.54,-10.27 -1.77,-4.3 -0.58,-5.83 3.99,-5.09 3.12,0.51 5.19,-0.17 13.35,-4.38 5.31,-2.75 12.1,-5.71 15.09,-6.58 9.71,-2.84 28.3832,9.08601 28.3832,9.08601 0,0 -9.6375,-2.4242 -14.4856,4.01447 -4.8481,6.43867 -2.1076,15.45952 -2.1076,15.45952 0,0 -11.1497,-5.2898 -16.58,2.95 -5.4303,8.2398 -0.1585,18.64579 -0.1585,18.64579 0,0 -12.7635,-4.19452 -16.9171,5.76184 -4.1536,9.95635 3.714,20.13542 3.714,20.13542 z m 116.0157,-3.49133 c 0,0 5.1499,-11.1555 0.8094,-17.7822 -3.1373,-4.00432 -12.217,-3.11952 -16.8535,-3.11952 0,0 9.2444,-6.72776 4.5274,-16.36552 -4.717,-9.63776 -14.1298,-5.83604 -16.8877,-5.19641 0.7466,-2.86492 4.4035,-10.11528 0.565,-15.93325 -4.8148,-7.29775 -20.437,-6.25785 -20.437,-6.25785 0,0 10.7023,-9.24697 17.2523,-9.24697 7.64,0 13.71,1.88 24.73,7.66 6.71,3.52 10.15,4.74 13.5,4.78 4.39,0.06 4.49,0.13 4.19,3.06 -0.67,6.67 -0.46,9.28 1.25,15.49 11.4202,30.51201 -12.6459,42.91172 -12.6459,42.91172 z M 1037.207,93.986999 c 0,0 -5.5721,-0.113419 -11.3471,2.711583 -7.2121,3.527958 5.2111,11.212328 3.821,15.764208 -0.8596,2.81473 -9.8396,3.45394 -11.2734,6.14434 -1.4338,2.69041 2.3734,12.52566 2.3734,12.52566 0,0 -7.5924,2.19737 -8.7,7.99 -1.1076,5.79263 8.9904,17.47209 -4.65,10.74 -5.33,-2.71 -10.74997,-14 -10.74997,-22.38 -0.25173,-4.55895 -0.35963,-9.57688 -2.7,-13.63 -1.88,-2.87 -1.07,-5.34 1.76,-5.34 1.22,0 5.14007,-2.79 9.27997,-6.62 14.8762,-10.65739 28.4979,-9.823899 32.1861,-7.905791 z m 344.7539,33.215791 c -1.3338,12.42809 -2.3137,18.83749 -19.6117,26.00855 0,0 8.9111,-7.45121 5.5382,-14.95994 -3.373,-7.50872 -11.6267,-4.67848 -11.6267,-4.67848 0,0 7.9044,-6.41542 5.0816,-14.08758 -2.8227,-7.67217 -13.1807,-5.78483 -13.1807,-5.78483 0,0 7.4763,-4.32004 4.6288,-12.04517 -2.8474,-7.72514 -13.5411,-4.643808 -13.5411,-4.643808 20.621,-13.242263 27.0178,-0.27634 33.5016,5.511258 4.68,4.39 8.27,6.97 9.71,6.98 2.96,0.01 3.91,2.59 1.81,4.91 -2.2162,3.62666 -1.8711,8.66245 -2.31,12.79 z m -286.21,29.63 c -3.64,3.29 -9.29,3.12 -9.29,3.12 0,0 8.2827,-5.95903 5.1936,-13.02622 -3.0891,-7.06719 -11.9736,-5.32378 -11.9736,-5.32378 0,0 7.1497,-5.72388 5.5024,-12.63461 -1.6474,-6.91073 -13.1196,-6.879 -13.1196,-6.879 0,0 5.5253,-3.20032 3.6172,-9.74639 -1.9081,-6.54607 -7.79,-6.91 -7.79,-6.91 -0.9279,-2.74367 18.0128,-4.22164 28.4,5.18 4.21,3.99 8.16,6.9 9.37,6.9 2.77,0 3.66,2.64 1.64,4.87 -0.98,1.08 -1.62,3.54 -1.63,6.21 -0.01,6.91 -1.89,16.8 -3.96,20.86 -1.04,2.03 -3.72,5.35 -5.96,7.38 z m 191.9187,-10.90815 c -2.3893,6.24866 3.2813,12.62815 3.2813,12.62815 0,0 -6.53,-0.9 -10.05,-4.25 -11.8006,-11.19126 -6.1561,-28.73343 -10.7,-33.77 -2.63,-2.9 -1.28,-5.02 3.2,-5.02 2.2833,0 14.4823,-13.29301 21.15,-16.299998 7.1721,-3.78885 18.38,1.489998 18.38,1.489998 0,0 -9.3344,1.82103 -10.34,7.93 -1.0056,6.10897 2.8576,11.39311 2.8576,11.39311 0,0 -11.3439,0.45848 -12.7676,7.94689 -1.4237,7.48841 4.55,12.32 4.55,12.32 0,0 -7.172,-0.61681 -9.5613,5.63185 z"
       fill="#36933f"
       id="path2"
       sodipodi:nodetypes="sczczczcccssczczczccsccccccccccczczczcccczcscscccccczczczcscscccczczczccccccczczczccscccczcccscczczcz"
       style="display:inline"
       sodipodi:insensitive="true" />
  </g>
</svg>
